<svg width="164" height="178" viewBox="0 0 164 178" fill="none" xmlns="http://www.w3.org/2000/svg">
<path d="M35 100L18 117" stroke="black" stroke-width="3" stroke-linecap="round"/>
<rect x="34.5" y="47.2175" width="97" height="97" rx="18.5" fill="#4995E8" stroke="black" stroke-width="3"/>
<rect x="49.5" y="62.2175" width="67" height="67" rx="8.5" fill="#97DDFA" stroke="black" stroke-width="3"/>
<path d="M75.0133 15.9389C78.85 14.3104 83.1497 14.3104 86.9864 15.9389L105.053 23.6071C108.982 25.2751 108.982 31.049 105.053 32.717L86.9867 40.385C83.1499 42.0135 78.8503 42.0135 75.0136 40.385L56.9473 32.7169C53.0176 31.0489 53.0176 25.275 56.9473 23.607L75.0133 15.9389Z" fill="#345CB8" stroke="black" stroke-width="3"/>
<path d="M55.5 28.1619C55.5 27.3335 54.8284 26.6619 54 26.6619C53.1716 26.6619 52.5 27.3335 52.5 28.1619H55.5ZM54 50.2666L62.6602 41.6064L54 32.9461L45.3397 41.6064L54 50.2666ZM52.5 28.1619L52.5 41.6064H55.5L55.5 28.1619H52.5Z" fill="black"/>
<path d="M81.146 42.4756L61.0371 35.3199L61.0371 47.8487C61.0371 50.3127 62.3965 52.6197 64.7775 53.8135C68.7421 55.8013 75.0879 58.5421 79.9371 58.5421C84.7863 58.5421 91.1321 55.8013 95.0967 53.8135C97.4776 52.6197 98.8371 50.3127 98.8371 47.8487L98.8371 35.3561L81.146 42.4756Z" fill="#345CB8"/>
<path d="M98.8785 35.3394L81.146 42.4756L61.0371 35.3199L61.0371 47.8487C61.0371 50.3127 62.3965 52.6197 64.7775 53.8135C68.7421 55.8013 75.0879 58.5421 79.9371 58.5421C84.7863 58.5421 91.1321 55.8013 95.0967 53.8135C97.4776 52.6197 98.8371 50.3127 98.8371 47.8487L98.8371 35.3199" stroke="black" stroke-width="3" stroke-linecap="round"/>
<g clip-path="url(#clip0_24_722)">
<path d="M29.5218 105.746C32.2167 101.078 33.5641 98.7442 35.8347 98.1217C38.1052 97.4991 40.4122 98.8311 45.026 101.495L51.5511 105.262C56.1649 107.926 58.4719 109.258 59.068 111.535C59.6642 113.813 58.3167 116.147 55.6219 120.815L47.9995 134.017C45.3047 138.685 43.9572 141.018 41.6867 141.641C39.4161 142.263 37.1092 140.931 32.4953 138.268L25.9703 134.5C21.3564 131.837 19.0495 130.505 18.4533 128.227C17.8571 125.949 19.2046 123.616 21.8995 118.948L29.5218 105.746Z" fill="#8273DC" stroke="black" stroke-width="3"/>
<path d="M27.7932 121.773L40.6559 99.4946" stroke="black" stroke-width="3" stroke-linecap="round"/>
<path d="M42 105.717L47 108.439" stroke="black" stroke-width="1.5" stroke-linecap="round"/>
<path d="M40 108.717L49 113.717" stroke="black" stroke-width="1.5" stroke-linecap="round"/>
<path d="M47.8328 133.921L28.2577 122.619C26.7407 121.743 25.9822 121.305 25.2625 121.115C23.3094 120.597 21.2198 121.17 19.7809 122.617" stroke="black" stroke-width="3"/>
</g>
<path d="M78 122.235C79.8537 122.502 81.7074 122.502 83.6383 122.235C87.7317 121.702 91.5935 119.749 94.8374 116.907C95.8415 116.108 96.5366 114.865 97 113.621C95.8415 113.089 94.683 112.733 93.4472 112.556C86.9594 111.668 80.7805 115.753 78 122.235Z" fill="white"/>
<path d="M93.7336 113.155C94.8806 113.29 95.9601 113.56 97.0396 113.964C97.1071 112.547 96.7697 111.063 95.8251 109.916C93.6661 107.352 90.2252 107.083 87.3241 108.837C85.3 110.051 82.4663 110.996 78.4182 109.781C76.8664 109.309 75.2471 109.174 73.6953 109.781C72.346 110.321 70.9966 111.603 70.4568 113.02C69.9171 114.504 69.7821 116.258 70.4568 117.743C71.1315 119.092 71.8062 120.104 73.6953 120.981C75.0447 121.588 76.4616 121.858 77.9459 122.128C80.5772 116.123 86.9867 112.278 93.7336 113.155Z" fill="black"/>
<path d="M99 172H109" stroke="black" stroke-width="8" stroke-linecap="round"/>
<path d="M96 146V171" stroke="black" stroke-width="3" stroke-linecap="round"/>
<path d="M73 172H63" stroke="black" stroke-width="8" stroke-linecap="round"/>
<path d="M75 146V171" stroke="black" stroke-width="3" stroke-linecap="round"/>
<path d="M50.2724 122.7C46.2407 120.893 41.5072 122.696 39.6999 126.728C37.8926 130.759 39.6958 135.493 43.7275 137.3C47.7592 139.107 52.4927 137.304 54.3 133.272C56.1074 129.241 54.3041 124.507 50.2724 122.7ZM18.6136 115.631C17.8576 115.292 16.9701 115.63 16.6312 116.386C16.2923 117.142 16.6304 118.03 17.3864 118.369L18.6136 115.631ZM47.6136 128.631L18.6136 115.631L17.3864 118.369L46.3864 131.369L47.6136 128.631Z" fill="black"/>
<path d="M149.818 70.9221C147.014 74.3362 147.508 79.3774 150.922 82.1818C154.336 84.9863 159.377 84.492 162.182 81.0779C164.986 77.6638 164.492 72.6226 161.078 69.8182C157.664 67.0137 152.623 67.508 149.818 70.9221ZM131.841 103.048C131.315 103.688 131.408 104.633 132.048 105.159C132.688 105.685 133.633 105.592 134.159 104.952L131.841 103.048ZM154.841 75.0479L131.841 103.048L134.159 104.952L157.159 76.9521L154.841 75.0479Z" fill="black"/>
<path d="M54 37.7175L54.8981 40.4815H57.8042L55.4531 42.1897L56.3511 44.9536L54 43.2454L51.6489 44.9536L52.5469 42.1897L50.1958 40.4815H53.1019L54 37.7175Z" fill="#DBFF00"/>
<ellipse cx="67.1973" cy="92.0716" rx="11.3578" ry="10.7723" fill="white"/>
<ellipse cx="67.4812" cy="92.0716" rx="6.8147" ry="6.4634" fill="black"/>
<ellipse cx="62.9381" cy="87.7627" rx="2.27157" ry="2.15447" fill="white"/>
<ellipse cx="98.4314" cy="92.3805" rx="11.3578" ry="10.7723" fill="white"/>
<ellipse cx="98.4314" cy="92.3806" rx="6.8147" ry="6.4634" fill="black"/>
<ellipse cx="93.8882" cy="88.0716" rx="2.27157" ry="2.15447" fill="white"/>
<path d="M53 81C57 75.4317 67.6201 70.509 73 77.3021C67.3333 75.4317 60.2222 76.4486 53 81Z" fill="black"/>
<path d="M114.923 84.6118C111.195 77.3272 99.78 69.9621 92.5688 77.5093C99.3514 75.9778 107.346 78.1414 114.923 84.6118Z" fill="black"/>
<defs>
<clipPath id="clip0_24_722">
<rect x="28.5837" y="81" width="56.5083" height="57.1673" rx="3" transform="rotate(30 28.5837 81)" fill="white"/>
</clipPath>
</defs>
</svg>


